<svg xmlns="http://www.w3.org/2000/svg" version="1.1" xmlns:xlink="http://www.w3.org/1999/xlink" xmlns:svgjs="http://svgjs.dev/svgjs" width="1000" height="1000" viewBox="0 0 1000 1000"><rect width="1000" height="1000" fill="#000000"></rect><g transform="matrix(0.7,0,0,0.7,149.57575757575756,376.7219143106373)"><svg viewBox="0 0 396 139" data-background-color="#ffffff" preserveAspectRatio="xMidYMid meet" height="351" width="1000" xmlns="http://www.w3.org/2000/svg" xmlns:xlink="http://www.w3.org/1999/xlink"><g id="tight-bounds" transform="matrix(1,0,0,1,0.2400000000000091,0.24218115922431593)"><svg viewBox="0 0 395.52 138.51563768155137" height="138.51563768155137" width="395.52"><g><svg viewBox="0 0 735.6410873280893 257.62994113066367" height="138.51563768155137" width="395.52"><g><rect width="15.345707741112559" height="257.62994113066367" x="284.60336979348835" y="0" fill="#ffffff" opacity="1" stroke-width="0" stroke="transparent" fill-opacity="1" class="rect-uu-0" data-fill-palette-color="primary" rx="1%" id="uu-0" data-palette-color="#6230a3"></rect></g><g transform="matrix(1,0,0,1,340.1210873280893,0.6408705003250077)"><svg viewBox="0 0 395.52 256.34820013001365" height="256.34820013001365" width="395.52"><g><svg viewBox="0 0 395.52 256.34820013001365" height="256.34820013001365" width="395.52"><g><svg viewBox="0 0 395.52 170.16558139534882" height="170.16558139534882" width="395.52"><g transform="matrix(1,0,0,1,0,0)"><svg width="395.52" viewBox="2.5 -36 86 37" height="170.16558139534882" data-palette-color="#6230a3"><g class="undefined-text-0" data-fill-palette-color="primary" id="text-0"><path d="M10-3.25L10-3.25Q10-1.75 8.97-0.63 7.95 0.5 6.25 0.5L6.25 0.5Q4.55 0.5 3.53-0.63 2.5-1.75 2.5-3.25L2.5-3.25Q2.5-4.75 3.53-5.88 4.55-7 6.25-7L6.25-7Q7.9-7 8.95-5.88 10-4.75 10-3.25ZM48.5-9.25L48.5-9.25Q48.5-7.1 47.6-5.23 46.7-3.35 44.67-1.98 42.65-0.6 39.42 0.2 36.2 1 31.5 1L31.5 1Q28.85 1 26.32 0.6 23.8 0.2 21.52-0.55 19.25-1.3 17.32-2.38 15.4-3.45 14-4.75L14-4.75 16.5-7.75Q19.35-5.3 23.15-4.03 26.95-2.75 31.5-2.75L31.5-2.75Q36.55-2.75 38.65-4.15 40.75-5.55 40.75-8L40.75-8Q40.75-9.9 39.1-11.2 37.45-12.5 33.5-13.75L33.5-13.75 24-16.75Q19.3-18.25 16.9-20.58 14.5-22.9 14.5-26.5L14.5-26.5Q14.5-28.35 15.37-30.08 16.25-31.8 18.1-33.13 19.95-34.45 22.82-35.23 25.7-36 29.75-36L29.75-36Q32.2-36 34.62-35.6 37.05-35.2 39.27-34.45 41.5-33.7 43.42-32.63 45.35-31.55 46.75-30.25L46.75-30.25 44.25-27.25Q41.4-29.7 37.85-30.98 34.3-32.25 29.75-32.25L29.75-32.25Q26-32.25 24.12-30.95 22.25-29.65 22.25-27.75L22.25-27.75Q22.25-26.7 22.6-25.93 22.95-25.15 23.77-24.48 24.6-23.8 25.95-23.23 27.3-22.65 29.3-22L29.3-22 38.75-19Q43.3-17.55 45.9-15.2 48.5-12.85 48.5-9.25ZM71.5-36L71.5-36Q76.05-36 80.09-34.45 84.15-32.9 87-30.25L87-30.25 84.5-27.25Q81.65-29.9 78.52-31.08 75.4-32.25 72-32.25L72-32.25Q69.45-32.25 67.3-31.38 65.15-30.5 63.57-28.7 62-26.9 61.12-24.13 60.25-21.35 60.25-17.5L60.25-17.5Q60.25-13.55 61.15-10.73 62.05-7.9 63.65-6.08 65.25-4.25 67.52-3.38 69.8-2.5 72.5-2.5L72.5-2.5Q74.75-2.5 76.37-2.9 78-3.3 79.09-3.85L79.09-3.85Q80.4-4.45 81.25-5.25L81.25-5.25 81.25-14.75 74.75-14.75 74.75-18 88.5-18 88.5-4.25Q86.65-2.75 84.2-1.6L84.2-1.6Q82.09-0.6 79.02 0.2 75.95 1 72 1L72 1Q67.5 1 63.9-0.2 60.3-1.4 57.75-3.75 55.2-6.1 53.85-9.55 52.5-13 52.5-17.5L52.5-17.5Q52.5-22 53.85-25.45 55.2-28.9 57.67-31.25 60.15-33.6 63.67-34.8 67.2-36 71.5-36Z" fill="#ffffff" data-fill-palette-color="primary"></path></g></svg></g></svg></g><g transform="matrix(1,0,0,1,75.54432,210.3375911888372)"><svg viewBox="0 0 244.43135999999998 46.010608941176464" height="46.010608941176464" width="244.43135999999998"><g transform="matrix(1,0,0,1,0,0)"><svg width="244.43135999999998" viewBox="3.5 -35 191.23 36" height="46.010608941176464" data-palette-color="#6230a3"><path d="M10.75-35L10.75 0 3.5 0 3.5-35 10.75-35ZM35.25-35L51.75-35Q56.25-35 59.92-33.88 63.59-32.75 66.22-30.55 68.84-28.35 70.3-25.08 71.75-21.8 71.75-17.5L71.75-17.5Q71.75-13.2 70.3-9.93 68.84-6.65 66.22-4.45 63.59-2.25 59.92-1.13 56.25 0 51.75 0L51.75 0 35.25 0 35.25-35ZM51.75-31.25L42.5-31.25 42.5-3.75 51.75-3.75Q54.3-3.75 56.52-4.53 58.75-5.3 60.4-6.98 62.05-8.65 63.02-11.25 64-13.85 64-17.5L64-17.5Q64-21.15 63.02-23.75 62.05-26.35 60.4-28.03 58.75-29.7 56.52-30.48 54.3-31.25 51.75-31.25L51.75-31.25ZM92.24-2.5L92.24-2.5Q94.69-2.5 96.82-3.35 98.94-4.2 100.99-5.75L100.99-5.75 102.99-2.75Q102.04-1.9 100.77-1.2 99.49-0.5 98.02-0.03 96.54 0.45 94.94 0.73 93.34 1 91.74 1L91.74 1Q88.19 1 85.27 0.08 82.34-0.85 80.29-2.63 78.24-4.4 77.12-7 75.99-9.6 75.99-13L75.99-13Q75.99-16.35 77.07-18.98 78.14-21.6 80.07-23.38 81.99-25.15 84.64-26.08 87.29-27 90.49-27L90.49-27Q93.49-27 96.14-26.1 98.79-25.2 100.74-23.48 102.69-21.75 103.84-19.3 104.99-16.85 104.99-13.75L104.99-13.75 104.99-10.25 83.64-10.25Q84.24-6.1 86.52-4.3 88.79-2.5 92.24-2.5ZM90.49-23.75L90.49-23.75Q89.04-23.75 87.79-23.2 86.54-22.65 85.62-21.45 84.69-20.25 84.12-18.35 83.54-16.45 83.49-13.75L83.49-13.75 97.49-13.75Q97.49-16.35 96.89-18.25 96.29-20.15 95.32-21.38 94.34-22.6 93.07-23.18 91.79-23.75 90.49-23.75ZM137.74-26L127.74 0 116.74 0 106.74-26 113.74-26 121.99-4.25 122.49-4.25 130.74-26 137.74-26ZM166.49-35L166.49 0 159.24 0 159.24-35 166.49-35ZM175.73-9.5L175.73-22.5 170.98-22.5 170.98-26 175.73-26 175.73-34 182.73-34 182.73-26 190.48-26 190.48-22.5 182.73-22.5 182.73-9.5Q182.73-7.6 183.16-6.28 183.58-4.95 184.31-4.13 185.03-3.3 185.98-2.9 186.93-2.5 187.98-2.5L187.98-2.5Q189.48-2.5 190.88-2.98 192.28-3.45 193.23-4L193.23-4 194.73-0.75Q193.23 0 191.31 0.5 189.38 1 187.48 1L187.48 1Q181.83 1 178.78-1.8 175.73-4.6 175.73-9.5L175.73-9.5Z" opacity="1" transform="matrix(1,0,0,1,0,0)" fill="#ffffff" class="undefined-text-1" data-fill-palette-color="secondary" id="text-1"></path></svg></g></svg></g></svg></g></svg></g><g transform="matrix(1,0,0,1,0,31.041449442290656)"><svg viewBox="0 0 244.43135999999996 195.54704224608236" height="195.54704224608236" width="244.43135999999996"><g><svg xmlns="http://www.w3.org/2000/svg" xmlns:xlink="http://www.w3.org/1999/xlink" version="1.1" x="0" y="0" viewBox="0 10 99.99900062611025 80" enable-background="new 0 0 100 100" xml:space="preserve" height="195.54704224608236" width="244.43135999999996" class="icon-icon-0" data-fill-palette-color="accent" id="icon-0"><path fill="#ffffff" d="M97.327 10H2.673C1.197 10 0 11.197 0 12.673V25v62.327C0 88.803 1.197 90 2.673 90h94.653c1.476 0 2.673-1.197 2.673-2.673V25 12.673C100 11.197 98.803 10 97.327 10zM95 85H5V30h90V85zM5 25V15h90v10H5z" data-fill-palette-color="accent"></path><circle fill="#ffffff" cx="10" cy="20" r="2.0" data-fill-palette-color="accent"></circle><circle fill="#ffffff" cx="17.5" cy="20" r="2.0" data-fill-palette-color="accent"></circle><circle fill="#ffffff" cx="25" cy="20" r="2.0" data-fill-palette-color="accent"></circle><path fill="#ffffff" d="M32.116 73.384c-0.764 0.764-2.004 0.764-2.768 0L15.61 59.645c-0.909-0.909-0.909-2.382 0-3.29l13.739-13.739c0.764-0.764 2.004-0.764 2.768 0l0.643 0.643c0.833 0.833 0.833 2.184 0 3.018L21.143 57.893c-0.059 0.059-0.059 0.155 0 0.214l11.741 11.741c0.764 0.764 0.764 2.004 0 2.768L32.116 73.384z" data-fill-palette-color="accent"></path><path fill="#ffffff" d="M68.019 73.384c0.764 0.764 2.004 0.764 2.768 0l13.739-13.739c0.909-0.909 0.909-2.382 0-3.29L70.787 42.616c-0.764-0.764-2.004-0.764-2.768 0l-0.643 0.643c-0.833 0.833-0.833 2.184 0 3.018l11.616 11.616c0.059 0.059 0.059 0.155 0 0.214L67.251 69.848c-0.764 0.764-0.764 2.004 0 2.768L68.019 73.384z" data-fill-palette-color="accent"></path><path fill="#ffffff" d="M61.388 41.954c-0.137-0.501-0.467-0.927-0.917-1.184l-0.943-0.539c-0.938-0.536-2.134-0.21-2.67 0.728L38.8 72.56c-0.258 0.451-0.325 0.985-0.189 1.486 0.137 0.501 0.467 0.927 0.917 1.184l0.943 0.539c0.938 0.536 2.134 0.21 2.67-0.728L61.2 43.44C61.457 42.989 61.525 42.454 61.388 41.954z" data-fill-palette-color="accent"></path></svg></g></svg></g></svg></g><defs></defs></svg><rect width="395.52" height="138.51563768155137" fill="none" stroke="none" visibility="hidden"></rect></g></svg></g></svg>